<?xml version="1.0" standalone="no"?>
<!DOCTYPE svg PUBLIC "-//W3C//DTD SVG 1.1//EN" "http://www.w3.org/Graphics/SVG/1.1/DTD/svg11.dtd" >
<svg xmlns="http://www.w3.org/2000/svg" xmlns:xlink="http://www.w3.org/1999/xlink" version="1.1">
<metadata></metadata>
<defs>
<font id="architextregular" horiz-adv-x="2052" >
<font-face units-per-em="2048" ascent="1735" descent="-313" />
<missing-glyph horiz-adv-x="1140" />
<glyph horiz-adv-x="0" />
<glyph unicode="&#xd;" horiz-adv-x="1140" />
<glyph unicode=" "  horiz-adv-x="1140" />
<glyph unicode="&#x09;" horiz-adv-x="1140" />
<glyph unicode="&#xa0;" horiz-adv-x="1140" />
<glyph unicode="!" horiz-adv-x="258" d="M72 -29q0 23 15 31t26 8q41 0 41 -39v-213q0 -23 -15.5 -31t-25.5 -8q-41 0 -41 39v213zM72 309v1018q0 23 15 31t26 8q41 0 41 -39v-1018q0 -23 -15.5 -31t-25.5 -8q-41 0 -41 39z" />
<glyph unicode="&#x22;" horiz-adv-x="524" d="M53 850v491q0 25 15.5 33t25.5 8q41 0 41 -41v-491q0 -23 -15.5 -31t-25.5 -8q-41 0 -41 39zM379 850v491q0 25 15.5 33t25.5 8q41 0 41 -41v-491q0 -23 -15.5 -31t-25.5 -8q-41 0 -41 39z" />
<glyph unicode="#" horiz-adv-x="1509" d="M59 428q0 41 39 41h373v262h-373q-23 0 -31 15.5t-8 25.5q0 41 39 41h373v297q0 25 15.5 33t25.5 8q41 0 41 -41v-297h403v297q0 25 15.5 33t25.5 8q41 0 41 -41v-297h363q23 0 31 -15.5t8 -25.5q0 -41 -39 -41h-363v-262h363q23 0 31 -15.5t8 -25.5q0 -41 -39 -41h-363 v-293q0 -25 -15 -33t-26 -8q-41 0 -41 41v293h-403v-293q0 -25 -15.5 -33t-25.5 -8q-41 0 -41 41v293h-373q-23 0 -31 15.5t-8 25.5zM553 469h403v262h-403v-262z" />
<glyph unicode="$" horiz-adv-x="1605" d="M127 176v207q0 25 15.5 33t25.5 8q41 0 41 -41v-188l123 -125h237v469h-260q-16 0 -28 12l-144 141q-10 10 -10 31v338q0 20 10 31l137 137q12 12 31 12h264v100q0 25 15.5 33t25.5 8q41 0 41 -41v-100h320v100q0 25 15 33t26 8q41 0 41 -41v-100h270q16 0 29 -12 l143 -144q10 -10 10 -28v-201q0 -25 -15 -33t-26 -8q-41 0 -41 41v182l-118 121h-252v-538h344q16 0 28 -11l70 -69q10 -12 10 -29v-336q0 -16 -10 -29l-147 -147q-12 -12 -31 -12h-264v-86q0 -23 -15.5 -31t-25.5 -8q-41 0 -41 39v86h-320v-86q0 -23 -15 -31t-26 -8 q-41 0 -41 39v86h-254q-18 0 -30 12l-148 147q-10 10 -10 29zM209 741l119 -120h241v538h-245l-115 -115v-303zM651 70h320v469h-320v-469zM651 621h320v538h-320v-538zM1053 70h245l125 125v299l-45 45h-325v-469z" />
<glyph unicode="%" horiz-adv-x="1869" d="M86 993v207q0 18 12 29l138 133q12 10 28 10h481q16 0 29 -10l137 -133q12 -10 13 -29v-207q0 -18 -11 -30l-139 -138q-8 -10 -29 -10h-481q-20 0 -31 10l-137 138q-10 10 -10 30zM168 1012l115 -115h444l115 115v172l-113 106h-448l-113 -106v-172zM223 33q0 16 10 26 l1299 1303q12 12 27 12q12 0 27.5 -11t15.5 -36q-1 -14 -11 -24l-1298 -1303q-12 -12 -27 -12q-43 0 -43 45zM905 168v205q0 18 15 30l137 134q12 10 28 10h482q16 0 26 -10l140 -134q12 -12 12 -30v-205q0 -18 -12 -31l-138 -137q-12 -12 -28 -12h-482q-18 0 -30 12 l-137 137q-12 12 -13 31zM987 184l115 -114h446l115 114v172l-113 109h-448l-115 -109v-172z" />
<glyph unicode="&#x26;" horiz-adv-x="2048" d="M127 172v270q0 20 10 29l109 109l-109 108q-10 10 -10 29v340q0 20 10 28l144 144q12 12 28 12h1151q16 0 29 -12l143 -144q10 -8 10 -28v-197q0 -23 -15 -31t-25 -8q-41 0 -41 39v178l-119 121h-1114l-119 -121v-303l115 -114h841q23 0 31 -15.5t8 -25.5q0 -41 -39 -41 h-841l-115 -115v-234l119 -120h1106l122 125v344h-149q-23 0 -31 15t-8 26q0 41 39 41h375q25 0 33 -15.5t8 -25.5q0 -41 -41 -41h-144v-344l123 -125h121q25 0 33 -15.5t8 -25.5q0 -41 -41 -41h-139q-18 0 -29 12l-117 119l-116 -119q-10 -12 -29 -12h-1143q-16 0 -28 12 l-144 143q-10 8 -10 29z" />
<glyph unicode="'" horiz-adv-x="194" d="M63 850v491q0 25 15.5 33t25.5 8q41 0 41 -41v-491q0 -23 -15 -31t-26 -8q-41 0 -41 39z" />
<glyph unicode="(" horiz-adv-x="720" d="M68 29v1020q0 18 10 28l295 295q12 12 30 12h183q25 0 33 -15t8 -26q0 -40 -41 -40h-164l-272 -273v-983l239 -242h205q23 0 31 -15t8 -26q0 -41 -39 -40h-221q-20 0 -31 10l-264 266q-10 12 -10 29z" />
<glyph unicode=")" horiz-adv-x="694" d="M47 -236q0 41 39 41h205l239 242v983l-272 273h-164q-25 0 -33 15t-8 25q0 41 41 41h182q18 0 31 -12l295 -295q10 -10 10 -28v-1020q0 -16 -10 -29l-264 -266q-10 -10 -31 -10h-221q-23 0 -31 15t-8 25z" />
<glyph unicode="*" horiz-adv-x="786" d="M10 1087q0 41 41 41h238l-170 170q-12 12 -13 29q0 16 13.5 29.5t30.5 13.5q16 0 28 -14l211 -209l209 209q12 12 29 12q18 0 30.5 -12.5t12.5 -30.5q0 -14 -13 -27l-170 -170h238q25 0 33 -15t8 -26q0 -41 -41 -40h-238l170 -168q12 -12 13 -29q0 -16 -13.5 -29.5 t-31.5 -13.5q-14 0 -27 12l-209 209l-211 -209q-12 -12 -28 -12q-18 0 -31 12t-13 31q0 16 13 29l170 168h-238q-25 0 -33 15t-8 25z" />
<glyph unicode="+" horiz-adv-x="1081" d="M94 516q0 41 41 41h377v367q0 25 15.5 33t25.5 8q41 0 41 -41v-367h367q23 0 30.5 -15.5t7.5 -25.5q0 -41 -38 -41h-367v-446q0 -23 -15.5 -31t-25.5 -8q-41 0 -41 39v446h-377q-25 0 -33 15.5t-8 25.5z" />
<glyph unicode="," horiz-adv-x="372" d="M14 -240q0 14 13 27l209 211v145h-97q-23 0 -31 15.5t-8 25.5q0 41 39 41h137q41 0 41 -41v-204q0 -16 -10 -29l-221 -223q-12 -12 -29 -13q-16 0 -29.5 13.5t-13.5 31.5z" />
<glyph unicode="-" horiz-adv-x="1095" d="M43 516q0 41 39 41h901q23 0 31 -15.5t8 -25.5q0 -41 -39 -41h-901q-23 0 -31 15.5t-8 25.5z" />
<glyph unicode="." horiz-adv-x="225" d="M74 29v151q0 23 15 31t26 8q41 0 41 -39v-151q0 -23 -15.5 -31t-25.5 -8q-41 0 -41 39z" />
<glyph unicode="/" horiz-adv-x="1855" d="M127 -231q0 14 10 24l1567 1569q12 12 27 12q12 0 27.5 -11t15.5 -36q-1 -14 -11 -24l-1566 -1569q-12 -12 -27 -13q-12 0 -27.5 11.5t-15.5 36.5z" />
<glyph unicode="0" horiz-adv-x="1601" d="M115 319v605q0 18 16 32l358 277q14 8 25 8h596q10 0 25 -8l348 -277q16 -10 16 -32v-609q0 -20 -14 -32l-355 -285q-16 -10 -26 -10h-594q-10 0 -27 10l-354 291q-14 12 -14 30zM197 338l325 -268h568l327 264v571l-321 254h-568l-331 -254v-567z" />
<glyph unicode="1" horiz-adv-x="995" d="M72 29q0 41 39 41h368v1089h-235q-23 0 -31 15.5t-8 25.5q0 41 39 41h276q41 0 41 -41v-1130h367q23 0 31 -15.5t8 -25.5q0 -41 -39 -41h-817q-23 0 -31 15t-8 26z" />
<glyph unicode="2" horiz-adv-x="1345" d="M45 29v278q0 20 10 29l144 141q12 10 28 10h793l180 181v237l-254 254h-700l-119 -119v-53q0 -23 -15.5 -31t-25.5 -8q-41 0 -41 39v72q0 20 10 28l144 142q16 12 28 12h738q18 0 30 -12l275 -275q12 -12 12 -30v-275q0 -20 -12 -31l-203 -200q-16 -12 -31 -12h-790 l-119 -117v-219h1122q25 0 33 -15.5t8 -25.5q0 -41 -41 -41h-1163q-41 0 -41 41z" />
<glyph unicode="3" horiz-adv-x="1355" d="M49 168v82q0 25 15.5 33t25.5 8q41 0 41 -41v-66l117 -114h876l84 86v102l-151 152l-21 -4h-661q-23 0 -31 15t-8 25q0 41 39 41h645l188 189v225l-256 258h-702l-119 -119v-47q0 -25 -15.5 -33t-25.5 -8q-41 0 -41 41v66q0 18 12 28l142 142q16 12 30 12h738 q16 0 28 -12l281 -281q10 -10 10 -28v-261q0 -23 -10 -30l-164 -162l164 -162q10 -10 10 -31v-137q0 -18 -10 -28l-109 -109q-12 -12 -28 -12h-914q-16 0 -28 12l-140 137q-12 10 -12 31z" />
<glyph unicode="4" horiz-adv-x="1296" d="M33 238q0 16 12 28l967 963q12 12 28 12t28.5 -10t12.5 -31v-1171q0 -23 -15 -31t-26 -8q-41 0 -41 39v1071l-823 -824h1008q23 0 31 -15t8 -25q0 -41 -39 -41h-1108q-43 0 -43 43z" />
<glyph unicode="5" horiz-adv-x="1363" d="M39 311v205q0 23 15.5 31t25.5 8q41 0 41 -39v-186l258 -260h555l260 262v295l-190 192h-924q-41 0 -41 41v340q0 41 41 41h1014q23 0 31 -15.5t8 -25.5q0 -41 -39 -41h-973v-258h899q20 0 31 -12l215 -215q10 -12 10 -31v-328q0 -18 -10 -30l-285 -285q-10 -12 -29 -12 h-592q-18 0 -28 12l-281 283q-12 12 -12 28z" />
<glyph unicode="6" horiz-adv-x="1361" d="M41 309v545q0 16 12 29l344 346q12 12 31 12h612q23 0 31 -15.5t8 -25.5q0 -41 -39 -41h-594l-323 -323v-508l258 -258h563l262 262v233l-252 252h-643l-106 -106q-12 -12 -29 -13q-16 0 -29.5 13.5t-13.5 31.5q0 14 12 27l119 119q12 10 29 10h678q18 0 30 -10l275 -277 q12 -12 12 -28v-269q0 -18 -12 -30l-285 -285q-12 -12 -28 -12h-601q-18 0 -30 12l-279 281q-12 12 -12 28z" />
<glyph unicode="7" horiz-adv-x="1372" d="M63 1200q0 41 39 41h1176q41 0 41 -43q0 -16 -12 -29l-1164 -1165q-12 -12 -28 -12t-29.5 13t-13.5 32q0 14 12 26l1094 1096h-1076q-23 0 -31 15.5t-8 25.5z" />
<glyph unicode="8" horiz-adv-x="1331" d="M45 315v236q0 23 16 33l238 176l-106 104q-10 10 -11 31v172q0 18 11 29l135 133q16 12 28 12h617q14 0 31 -12l133 -133q12 -10 12 -29v-172q0 -18 -12 -31l-107 -106l240 -174q16 -10 16 -33v-236q0 -14 -12 -30l-283 -285q-10 -12 -28 -12h-592q-18 0 -31 12l-285 285 q-10 10 -10 30zM127 332l262 -262h555l260 262v196l-252 189h-573l-252 -189v-196zM264 913l117 -114h571l115 114v136l-113 110h-579l-111 -110v-136z" />
<glyph unicode="9" horiz-adv-x="1468" d="M113 655v269q0 20 12 30l276 275q16 12 29 12h612q12 0 29 -12l277 -275q12 -10 12 -30v-549q0 -12 -12 -29l-344 -346q-10 -12 -29 -12h-541q-23 0 -31 15t-8 26q0 41 39 41h522l322 323v512l-254 254h-575l-254 -254v-231l262 -262h622l113 110q12 12 29 13 q16 0 29.5 -13.5t13.5 -32.5q0 -14 -13 -26l-125 -123q-10 -10 -28 -10h-660q-16 0 -28 10l-285 287q-12 10 -12 28z" />
<glyph unicode=":" horiz-adv-x="225" d="M63 88v148q0 25 15.5 32.5t25.5 7.5q41 1 41 -40v-148q0 -23 -15 -31t-26 -8q-41 0 -41 39zM63 920v147q0 23 15.5 31t25.5 8q41 0 41 -39v-147q0 -25 -15 -33t-26 -8q-41 0 -41 41z" />
<glyph unicode=";" horiz-adv-x="374" d="M16 -238q0 12 13 25l194 201v172h-96q-25 0 -33 15t-8 26q0 41 41 41h137q41 0 41 -41v-230q0 -12 -12 -28l-207 -211q-12 -12 -27 -13q-18 0 -30.5 12.5t-12.5 30.5zM164 913v144q0 23 15.5 31t25.5 8q41 0 41 -39v-144q0 -23 -15.5 -31t-25.5 -8q-41 0 -41 39z" />
<glyph unicode="&#x3c;" horiz-adv-x="749" d="M61 584v67q0 18 11 31l477 477q12 12 26 12q43 0 43 -45q0 -14 -10 -24l-465 -467v-33l533 -536q12 -12 12 -29q0 -16 -13 -29.5t-32 -13.5q-12 0 -25 12l-546 547q-10 12 -11 31z" />
<glyph unicode="=" horiz-adv-x="1384" d="M123 408q0 41 39 41h1032q25 0 33 -15.5t8 -25.5q0 -41 -41 -41h-1032q-23 0 -31 15t-8 26zM123 815q0 41 39 41h1032q25 0 33 -15.5t8 -25.5q0 -41 -41 -41h-1032q-23 0 -31 15.5t-8 25.5z" />
<glyph unicode="&#x3e;" horiz-adv-x="720" d="M45 39q0 14 12 27l535 536v33l-504 506q-12 12 -12 24q0 16 12 30.5t31 14.5q10 0 24 -10l516 -518q14 -10 15 -31v-67q0 -14 -12 -31l-545 -547q-12 -12 -29 -12q-16 0 -29.5 13t-13.5 32z" />
<glyph unicode="?" horiz-adv-x="1386" d="M53 987v70q0 18 13 28l147 144q16 12 29 12h874q16 0 29 -12l143 -144q10 -8 10 -28v-266q0 -18 -10 -29l-614 -615q-12 -12 -29 -12q-18 0 -30.5 12.5t-12.5 30.5q0 16 12 29l603 602v229l-119 121h-840l-123 -119v-53q0 -23 -15.5 -31t-25.5 -8q-41 0 -41 39zM504 -70 q0 25 15.5 33t25.5 8q41 0 41 -41v-123q0 -23 -15.5 -30.5t-25.5 -7.5q-41 0 -41 38v123z" />
<glyph unicode="@" horiz-adv-x="1980" d="M72 172v752q0 20 16 32l344 271q14 8 25 8h1013q10 0 25 -8l352 -271q16 -12 17 -32v-471q0 -16 -11 -29l-137 -141q-12 -14 -30 -15h-134q-16 0 -28 13l-201 198h-705l-200 -198q-12 -12 -29 -13q-18 0 -30.5 12.5t-12.5 30.5q0 16 12 29l142 139h-62q-25 0 -33 15.5 t-8 25.5q0 41 41 41h144l327 328q12 12 29 12h66q16 0 28 -12l539 -539h98l113 119v436l-326 248h-985l-317 -248v-712l327 -254h1123l178 114v60q0 25 15 33t26 8q41 0 41 -41v-84q0 -23 -17 -33l-207 -133q-12 -6 -22 -6h-1151q-14 0 -25 8l-354 274q-16 12 -16 33z M700 561h541l-256 258h-29z" />
<glyph unicode="A" horiz-adv-x="2691" d="M104 29q0 16 15 30l346 347h-117q-25 0 -33 15t-8 25q0 41 41 41h199l745 746q12 12 31 12h70q18 0 28 -12l1176 -1174q12 -12 12 -28q0 -18 -12 -30.5t-31 -12.5q-16 0 -29 12l-405 406h-1548l-408 -406q-12 -12 -29 -12q-14 0 -28.5 12t-14.5 29zM666 487h1384 l-676 676h-35z" />
<glyph unicode="B" horiz-adv-x="1855" d="M84 446q0 41 41 41h78l-2 580q0 16 12 29l137 137q12 12 31 12h1092q20 0 30 -12l209 -211q12 -16 12 -29v-477q0 -18 -12 -29l-70 -69q-10 -12 -28 -12h-1329l-2 -336h1302l121 120v107l-59 55q-12 12 -13 29q0 18 12.5 30.5t30.5 12.5q16 0 29 -12l70 -68 q12 -12 12 -29v-143q0 -18 -12 -29l-142 -143q-12 -12 -30 -12h-1362q-41 0 -41 41l2 377h-78q-25 0 -33 15t-8 25zM283 1049l2 -562h1310l47 48v440l-188 188h-1057z" />
<glyph unicode="C" horiz-adv-x="2000" d="M121 250v739q0 20 12 31l215 213q16 12 31 12h1229q16 0 28 -12l133 -139q12 -12 13 -27v-80q0 -23 -15.5 -31t-25.5 -8q-41 0 -41 39v64l-109 112h-1194l-194 -192v-705l192 -196h1329l113 108v82q0 25 15.5 33t25.5 8q41 0 41 -41v-98q0 -16 -14 -29l-138 -133 q-16 -12 -26 -12h-1362q-18 0 -31 14l-215 221q-12 16 -12 27z" />
<glyph unicode="D" horiz-adv-x="1705" d="M111 29v1028q0 12 12 28l143 148q12 12 29 12h1069q18 0 31 -12l217 -227q12 -16 12 -27v-733q0 -12 -12 -29l-211 -215q-12 -14 -29 -14h-1220q-41 0 -41 41zM193 70h1163l186 192v701l-194 200h-1037l-118 -123v-970z" />
<glyph unicode="E" horiz-adv-x="1789" d="M51 446q0 41 41 41h107v648q0 20 14 32l78 68q12 10 26 10h1358q23 0 31 -15.5t8 -25.5q0 -41 -39 -41h-1343l-51 -45v-631h1124q23 0 31 -15t8 -26q0 -40 -37 -40h-2h-1124v-336h1378q25 0 33 -15.5t8 -25.5q0 -41 -41 -41h-1419q-41 0 -41 41v377h-107q-25 0 -33 15 t-8 25z" />
<glyph unicode="F" horiz-adv-x="1820" d="M88 446q0 41 39 41h92v639q0 10 12 27l74 80q12 12 29 12h1366q25 0 33 -15.5t8 -25.5q0 -41 -41 -41h-1348l-51 -53v-623h1212q25 0 33 -15t8 -26q0 -40 -39 -40h-2h-1212v-377q0 -23 -15.5 -31t-25.5 -8q-41 0 -41 39v377h-92q-23 0 -31 15t-8 25z" />
<glyph unicode="G" horiz-adv-x="1982" d="M96 242v747q0 20 13 31l206 205q10 10 29 10h1233q16 0 29 -10l133 -129q12 -10 12 -29v-80q0 -23 -15.5 -31t-25.5 -8q-41 0 -41 39v64l-108 102h-1199l-184 -182v-713l184 -182h1326l118 119v165l-45 46h-905v-48q0 -23 -15.5 -31t-25.5 -8q-41 0 -41 39v168 q0 23 15.5 31t25.5 8q41 0 41 -39v-39h924q18 0 28 -10l70 -69q10 -10 10 -29v-197v-14v-344q0 -25 -15 -33t-26 -8q-41 0 -41 41v254l-71 -74q-12 -10 -29 -10h-1362q-18 0 -29 10l-206 207q-12 12 -13 31z" />
<glyph unicode="H" horiz-adv-x="1679" d="M74 446q0 41 39 41h116v717q0 23 15.5 31t25.5 8q41 0 41 -39v-717h1176v717q0 23 15.5 31t25.5 8q41 0 41 -39v-1175q0 -23 -15.5 -31t-25.5 -8q-41 0 -41 39v377h-1176v-377q0 -23 -15 -31t-26 -8q-41 0 -41 39v377h-116q-23 0 -31 15t-8 25z" />
<glyph unicode="I" horiz-adv-x="1634" d="M96 1204q0 41 39 41h1352q25 0 33 -15.5t8 -25.5q0 -41 -41 -41h-672v-1093h672q25 0 33 -15.5t8 -25.5q0 -41 -41 -41h-1335q-25 0 -33 15t-8 26q0 41 41 41h581v1093h-598q-23 0 -31 15.5t-8 25.5z" />
<glyph unicode="J" horiz-adv-x="1421" d="M88 246v403q0 23 15.5 31t25.5 8q41 0 41 -39v-385l195 -194h692l192 194v940q0 23 15.5 31t25.5 8q41 0 41 -39v-958q0 -16 -12 -29l-215 -217q-10 -12 -29 -12h-729q-18 0 -31 12l-215 217q-12 10 -12 29z" />
<glyph unicode="K" horiz-adv-x="1454" d="M109 29v1175q0 23 15 31t26 8q41 0 40 -39v-1075l1102 1104q12 12 29 12q18 0 30.5 -12t12.5 -31q0 -14 -12 -26l-557 -558l557 -559q12 -12 12 -28t-13.5 -29.5t-31.5 -13.5q-14 0 -27 12l-557 559l-557 -559q-12 -12 -28 -12t-28.5 10t-12.5 31z" />
<glyph unicode="L" horiz-adv-x="1443" d="M106 29v1175q0 23 15.5 31t25.5 8q41 0 41 -39v-1134h1125q23 0 31 -15.5t8 -25.5q0 -41 -39 -41h-1166q-41 0 -41 41z" />
<glyph unicode="M" horiz-adv-x="2283" d="M127 29v1175q0 41 41 41q16 0 29 -12l952 -950h16l953 950q12 12 28 12q18 0 30.5 -10t12.5 -31v-1175q0 -23 -15 -31t-26 -8q-41 0 -41 39v1075l-895 -893q-12 -10 -28 -10h-54q-20 0 -28 10l-893 893v-1075q0 -23 -15.5 -31t-25.5 -8q-41 0 -41 39z" />
<glyph unicode="N" horiz-adv-x="1445" d="M117 29v1175q0 41 41 41q16 0 28 -12l1145 -1145q12 -12 12 -29q0 -18 -12 -30.5t-31 -12.5q-14 0 -26 13l-1075 1075v-1075q0 -23 -15.5 -31t-25.5 -8q-41 0 -41 39zM1276 29v1175q0 23 15.5 31t25.5 8q41 0 41 -39v-1175q0 -23 -15.5 -31t-25.5 -8q-41 0 -41 39z" />
<glyph unicode="O" horiz-adv-x="2029" d="M117 246v741q0 19 10 31l217 215q12 12 29 12h1288q18 0 31 -12l211 -217q10 -12 10 -29v-741q0 -18 -12 -29l-226 -217q-16 -12 -28 -12h-1274q-20 0 -31 12l-215 217q-10 10 -10 29zM199 264l190 -194h1241l201 192v709l-186 192h-1254l-192 -192v-707z" />
<glyph unicode="P" horiz-adv-x="1812" d="M125 442q0 41 39 41h117v647q0 18 10 29l74 74q12 12 30 12h1075q18 0 31 -12l215 -215q12 -12 13 -31v-328q0 -18 -13 -30l-215 -215q-12 -12 -31 -13h-1108v-372q0 -23 -15 -31t-25 -8q-41 0 -41 39v372h-117q-23 0 -31 15.5t-8 25.5zM362 483h1092l193 193v295 l-193 192h-1040l-52 -51v-629z" />
<glyph unicode="Q" horiz-adv-x="2056" d="M135 242v745q0 20 10 31l217 215q12 12 29 12h1223q16 0 28 -12l279 -275q10 -10 10 -28v-680q0 -16 -10 -29l-113 -110l181 -181q12 -12 12 -26q0 -18 -12.5 -30.5t-30.5 -12.5q-16 0 -29 12l-180 178l-49 -51q-12 -12 -31 -12h-1278q-14 0 -26 12l-218 211 q-12 10 -12 31zM217 258l191 -188h1243l41 39l-164 159h-262q-23 0 -31 15.5t-8 25.5q0 41 39 41h280q18 0 31 -10l172 -172l100 100v643l-254 252h-1185l-193 -192v-713z" />
<glyph unicode="R" horiz-adv-x="1861" d="M96 367q0 41 39 41h98v651q0 20 11 28l147 146q16 12 31 12h1073q18 0 29 -12l215 -215q10 -12 10 -31v-409q0 -20 -10 -29l-213 -211q-16 -12 -31 -12h-25l269 -267q12 -12 12 -28t-13.5 -29.5t-31.5 -13.5q-14 0 -27 12l-325 326h-1039v-297q0 -23 -15 -31t-26 -8 q-41 0 -41 39v297h-98q-23 0 -31 15t-8 26zM315 408h1051h14h99l188 188v375l-190 192h-1039l-123 -123v-632z" />
<glyph unicode="S" horiz-adv-x="1730" d="M119 172v221q0 23 15.5 31t25.5 8q41 0 41 -39v-203l118 -120h1111l122 125v303l-114 114h-1205q-12 0 -28 13l-74 71q-12 10 -12 29v336q0 20 10 31l143 141q12 12 29 12h1151q16 0 29 -12l147 -148q12 -10 12 -28v-197q0 -23 -15 -31t-26 -8q-41 0 -40 39v178l-125 125 h-1115l-118 -119v-303l49 -47h1204q18 0 31 -10l139 -139q10 -8 10 -29v-340q0 -16 -10 -29l-145 -147q-10 -12 -31 -12h-1147q-16 0 -29 12l-143 143q-10 8 -10 29z" />
<glyph unicode="T" horiz-adv-x="1689" d="M133 1204q0 41 39 41h1376q23 0 31 -15.5t8 -25.5q0 -41 -39 -41h-647v-1134q0 -23 -15.5 -31t-25.5 -8q-41 0 -41 39v1134h-647q-23 0 -31 15.5t-8 25.5z" />
<glyph unicode="U" horiz-adv-x="1601" d="M117 242v962q0 23 15 31t26 8q41 0 41 -39v-946l190 -188h836l188 188v946q0 23 15.5 31t25.5 8q41 0 41 -39v-962q0 -23 -10 -31l-213 -211q-16 -12 -31 -12h-870q-14 0 -31 12l-213 211q-10 10 -10 31z" />
<glyph unicode="V" horiz-adv-x="2746" d="M135 1204q0 14 12.5 28.5t28.5 14.5q17 0 31 -14l1163 -1163h33l1161 1163q12 12 27 12q43 0 43 -45q0 -14 -11 -24l-1173 -1176q-10 -12 -29 -12h-69q-18 0 -29 12l-1176 1176q-12 12 -12 28z" />
<glyph unicode="W" horiz-adv-x="2213" d="M61 29v1175q0 23 15.5 31t25.5 8q41 0 41 -39v-1075l897 899q12 10 29 10h47q18 0 29 -10l897 -899v1075q0 23 15.5 31t25.5 8q41 0 41 -39v-1175q0 -41 -43 -41q-16 0 -29 12l-954 956h-11l-956 -956q-12 -12 -29 -12q-41 0 -41 41z" />
<glyph unicode="X" horiz-adv-x="1497" d="M127 1204q0 16 13.5 29.5t29.5 13.5t29 -14l563 -565l565 565q12 12 29 12q18 0 30.5 -12t12.5 -31q0 -14 -13 -26l-565 -566l551 -551q12 -12 12 -26q0 -16 -14 -30.5t-31 -14.5q-14 0 -26 12l-551 551l-551 -551q-12 -12 -29 -12q-18 0 -30.5 12t-12.5 31q0 16 13 28 l550 551l-563 566q-12 12 -12 28z" />
<glyph unicode="Y" horiz-adv-x="1718" d="M123 1204q0 14 12 28.5t29 14.5q16 0 29 -14l679 -680h25l680 680q12 12 27 12q18 0 30.5 -12t12.5 -31q0 -14 -13 -26l-690 -695l-18 -10v-442q0 -23 -15.5 -31t-25.5 -8q-41 0 -41 39v442l-19 10l-690 695q-12 12 -12 28z" />
<glyph unicode="Z" horiz-adv-x="1511" d="M139 31q0 16 13 28l1105 1104h-1060q-23 0 -31 15.5t-8 25.5q0 41 39 41h1159q43 0 43 -41q0 -16 -13 -28l-1105 -1106h1075q25 0 33 -15.5t8 -25.5q0 -41 -41 -41h-1176q-41 0 -41 43z" />
<glyph unicode="[" horiz-adv-x="790" d="M131 -233v1564q0 41 41 41h481q25 0 33 -15.5t8 -25.5q0 -41 -41 -41h-440v-1483h436q23 0 31 -15t8 -25q0 -41 -39 -41h-477q-41 0 -41 41z" />
<glyph unicode="\" horiz-adv-x="1855" d="M125 1331q0 16 13.5 29.5t31.5 13.5q15 0 27 -12l1568 -1569q12 -12 13 -29q0 -16 -13.5 -29.5t-31.5 -13.5q-14 0 -27 13l-1569 1569q-12 12 -12 28z" />
<glyph unicode="]" horiz-adv-x="694" d="M63 1331q0 41 39 41h484q41 0 41 -41v-1564q0 -41 -41 -41h-477q-25 0 -33 15t-8 26q0 41 41 40h436v1483h-443q-23 0 -31 15.5t-8 25.5z" />
<glyph unicode="^" horiz-adv-x="446" d="M37 926q0 16 12 28l152 150q14 14 30 14q14 0 27 -14l152 -150q12 -12 12 -28q0 -18 -12.5 -30.5t-30.5 -12.5q-16 0 -29 12l-121 121l-120 -121q-12 -12 -29 -12q-18 0 -30.5 12t-12.5 31z" />
<glyph unicode="_" horiz-adv-x="1906" d="M-39 -272q0 41 39 41h1907q25 0 33 -15.5t8 -25.5q0 -41 -41 -41h-1907q-23 0 -31 15t-8 26z" />
<glyph unicode="`" horiz-adv-x="303" d="M18 1147q0 16 13.5 29.5t31.5 13.5q15 0 27 -12l170 -170q12 -12 12 -29q0 -18 -12 -30.5t-31 -12.5q-16 0 -28 12l-170 170q-12 12 -13 29z" />
<glyph unicode="a" d="M63 31q0 16 13 28l282 283h-112q-23 0 -31 15.5t-8 25.5q0 41 39 41h194l529 530q10 10 28 11h70q18 0 29 -11l893 -895q12 -12 12 -28t-13.5 -29.5t-31.5 -13.5q-14 0 -27 12l-342 342h-1110l-342 -342q-12 -12 -29 -12q-18 0 -30.5 12t-12.5 31zM559 424h946l-456 459 h-33z" />
<glyph unicode="b" horiz-adv-x="1622" d="M84 383q0 41 39 41h102v362q0 18 11 29l137 139q10 10 28 11h820q18 0 28 -11l201 -198q12 -10 12 -31v-319l58 -60q10 -12 10 -29v-145q0 -18 -10 -29l-146 -143q-16 -12 -28 -12h-1080q-41 0 -41 41v313h-102q-23 0 -31 15.5t-8 25.5zM307 70h1020l121 120v111l-39 41 h-1102v-272zM307 424h1073v285l-178 174h-782l-113 -115v-344z" />
<glyph unicode="c" horiz-adv-x="1710" d="M123 242v475q0 18 12 31l205 206q12 10 31 11h956q18 0 29 -11l135 -133q12 -10 12 -30v-74q0 -23 -15 -31t-26 -8q-41 0 -41 39v57l-112 109h-920l-184 -183v-442l188 -188h979l187 188v61q0 23 15 31t25 8q41 0 41 -39v-77q0 -14 -12 -31l-209 -211q-10 -12 -30 -12 h-1014q-16 0 -29 12l-211 211q-12 12 -12 31z" />
<glyph unicode="d" horiz-adv-x="1429" d="M86 29v831q0 20 10 29l70 69q12 12 29 13h874q12 0 29 -13l217 -210q12 -12 12 -31v-471q0 -18 -12 -29l-217 -217q-16 -12 -29 -12h-942q-41 0 -41 41zM168 70h883l194 194v436l-192 189h-840l-45 -47v-772z" />
<glyph unicode="e" horiz-adv-x="1484" d="M43 379q0 41 39 41h106v436q0 18 13 31l69 67q12 10 29 11h1096q23 0 31 -15.5t8 -25.5q0 -41 -39 -41h-1080l-45 -43v-420h844q23 0 31 -15.5t8 -25.5q0 -41 -39 -41h-844v-268h1114q23 0 31 -15.5t8 -25.5q0 -41 -39 -41h-1155q-41 0 -41 41v309h-106q-23 0 -31 15.5 t-8 25.5z" />
<glyph unicode="f" horiz-adv-x="1284" d="M43 379q0 41 41 41h106v436q0 20 13 31l69 67q12 10 27 11h1098q23 0 31 -15.5t8 -25.5q0 -41 -39 -41h-1082l-43 -43v-420h844q23 0 31 -15.5t8 -25.5q0 -41 -39 -41h-844v-309q0 -23 -15 -31t-26 -8q-41 0 -41 39v309h-106q-25 0 -33 15.5t-8 25.5z" />
<glyph unicode="g" horiz-adv-x="1716" d="M98 250v455q0 18 13 28l221 221q10 10 28 11h947q16 0 28 -11l131 -131q12 -10 13 -28v-78q0 -23 -15.5 -31t-25.5 -8q-41 0 -41 39v59l-109 107h-909l-199 -197v-418l197 -198h1036l125 125v100l-49 47h-899v-14q0 -23 -15.5 -31t-25.5 -8q-41 0 -41 39v45v20v39 q0 25 15.5 33t25.5 8q41 0 41 -41v-8h915q16 0 29 -10l74 -74q12 -10 12 -29v-129v-14v-299q0 -23 -15.5 -31t-25.5 -8q-41 0 -41 39v209l-76 -78q-12 -12 -30 -12h-1074q-18 0 -28 12l-219 221q-12 16 -13 29z" />
<glyph unicode="h" horiz-adv-x="1411" d="M109 383q0 41 41 41h51v500q0 25 15 33t26 8q41 0 41 -41v-500h942v500q0 25 15 33t26 8q41 0 41 -41v-895q0 -23 -15.5 -31t-25.5 -8q-41 0 -41 39v313h-942v-313q0 -23 -15.5 -31t-25.5 -8q-41 0 -41 39v313h-51q-25 0 -33 15.5t-8 25.5z" />
<glyph unicode="i" horiz-adv-x="1157" d="M131 924q0 41 39 41h831q23 0 31 -15.5t8 -25.5q0 -41 -39 -41h-372v-813h362q23 0 31 -15.5t8 -25.5q0 -41 -39 -41h-815q-25 0 -33 15t-8 26q0 41 41 41h371v813h-377q-23 0 -31 15t-8 26z" />
<glyph unicode="j" horiz-adv-x="1173" d="M115 250v270q0 25 15 33t26 8q41 0 41 -41v-252l196 -198h416l190 194v660q0 25 15.5 33t25.5 8q41 0 41 -41v-678q0 -16 -12 -29l-213 -217q-10 -12 -29 -12h-452q-18 0 -29 12l-219 221q-12 16 -12 29z" />
<glyph unicode="k" horiz-adv-x="1187" d="M109 29v895q0 25 15 33t26 8q41 0 40 -41v-795l822 825q12 12 28 13q16 0 29.5 -13.5t13.5 -31.5q0 -14 -12 -27l-414 -416l420 -420q12 -12 13 -26q0 -16 -14.5 -30.5t-31.5 -14.5q-14 0 -26 12l-420 422l-420 -422q-12 -12 -28 -12t-28.5 10t-12.5 31z" />
<glyph unicode="l" horiz-adv-x="1134" d="M88 29v895q0 25 15.5 33t25.5 8q41 0 41 -41v-854h850q23 0 31 -15.5t8 -25.5q0 -41 -39 -41h-891q-41 0 -41 41z" />
<glyph unicode="m" horiz-adv-x="1724" d="M119 29v895q0 43 41 43q16 0 28 -13l674 -671h29l674 671q12 12 28 13q41 0 41 -43v-895q0 -23 -15 -31t-26 -8q-41 0 -41 39v794l-614 -612q-10 -10 -29 -10h-65q-18 0 -29 10l-614 612v-794q0 -23 -15.5 -31t-25.5 -8q-41 0 -41 39z" />
<glyph unicode="n" horiz-adv-x="1208" d="M127 29v895q0 43 43 43q16 0 29 -13l821 -825v795q0 25 15.5 33t25.5 8q41 0 41 -41v-895q0 -41 -41 -41q-16 0 -29 12l-823 823v-794q0 -23 -15.5 -31t-25.5 -8q-41 0 -41 39z" />
<glyph unicode="o" horiz-adv-x="1716" d="M106 246v479q0 16 13 29l198 200q12 10 31 11h1032q16 0 29 -11l213 -213q12 -12 12 -30v-461q0 -16 -12 -29l-221 -221q-12 -12 -29 -12h-1007q-19 0 -31 12l-215 217q-12 10 -13 29zM188 264l193 -194h973l198 198v424l-190 191h-997l-177 -176v-443z" />
<glyph unicode="p" horiz-adv-x="1564" d="M86 305q0 41 41 41h100v502q0 16 15 29l77 77q12 10 29 11h942q18 0 31 -11l137 -139q12 -10 12 -29v-340q0 -18 -12 -28l-143 -144q-12 -10 -31 -10h-975v-235q0 -23 -15 -31t-26 -8q-41 0 -41 39v235h-100q-25 0 -33 15.5t-8 25.5zM309 346h957l123 119v303l-115 115 h-909l-56 -52v-485z" />
<glyph unicode="q" horiz-adv-x="1728" d="M102 246v471q0 18 13 28l211 209q12 10 30 11h1016q18 0 31 -11l211 -213q12 -10 12 -28v-404q0 -18 -12 -28l-113 -113l109 -109q12 -12 12 -26q0 -16 -14.5 -30.5t-30.5 -14.5q-14 0 -27 12l-108 111l-113 -111q-16 -12 -31 -12h-938q-18 0 -28 12l-217 217 q-12 10 -13 29zM184 264l195 -194h903l100 100l-96 98h-262q-23 0 -31 15.5t-8 25.5q0 41 39 41h281q18 0 28 -10l109 -111l102 99v366l-188 189h-983l-189 -185v-434z" />
<glyph unicode="r" horiz-adv-x="1544" d="M70 309q0 41 41 41h82v506q0 18 10 29l69 69q12 10 29 11h956q18 0 31 -11l133 -133q12 -10 13 -30v-345q0 -18 -13 -28l-139 -137q-12 -12 -29 -13h-39l209 -209q12 -12 13 -28q0 -18 -12.5 -30.5t-30.5 -12.5q-16 0 -29 12l-268 268h-822v-239q0 -23 -15 -31t-26 -8 q-41 0 -40 39v239h-82q-25 0 -33 15.5t-8 25.5zM274 350h836h12h113l117 115v309l-111 109h-922l-45 -45v-488z" />
<glyph unicode="s" horiz-adv-x="1413" d="M88 168v78q0 23 15.5 31t25.5 8q41 0 41 -39v-62l117 -114h839l123 125v161l-121 119h-923q-12 0 -29 12l-74 74q-14 12 -14 29v198q0 18 12 29l138 137q12 10 28 11h881q18 0 29 -11l143 -141q12 -10 12 -31v-65q0 -23 -15.5 -31t-25.5 -8q-41 0 -41 39v49l-121 117 h-843l-115 -113v-164l51 -49h926q16 0 29 -12l143 -139q12 -10 12 -31v-199q0 -12 -12 -29l-145 -147q-10 -12 -31 -12h-875q-12 0 -28 12l-140 137q-12 10 -12 31z" />
<glyph unicode="t" horiz-adv-x="1363" d="M100 924q0 41 41 41h1092q23 0 31 -15.5t8 -25.5q0 -41 -39 -41h-500v-854q0 -23 -15.5 -31t-25.5 -8q-41 0 -41 39v854h-510q-25 0 -33 15t-8 26z" />
<glyph unicode="u" horiz-adv-x="1308" d="M111 242v682q0 25 15 33t26 8q41 0 41 -41v-666l188 -188h557l201 198v656q0 25 15 33t26 8q41 0 41 -41v-674q0 -18 -13 -29l-221 -221q-16 -12 -31 -12h-591q-18 0 -31 12l-211 211q-12 12 -12 31z" />
<glyph unicode="v" horiz-adv-x="2142" d="M123 922q0 43 45 43q15 -1 25 -11l884 -884h23l882 884q12 12 29 13q16 0 29.5 -13.5t13.5 -31.5q0 -14 -12 -27l-895 -895q-12 -12 -29 -12h-57q-14 0 -31 12l-895 895q-12 12 -12 27z" />
<glyph unicode="w" horiz-adv-x="2015" d="M119 29v895q0 25 15.5 33t25.5 8q41 0 41 -41v-795l755 756q12 12 31 12h57q18 0 31 -12l756 -756v795q0 25 15.5 33t25.5 8q41 0 41 -41v-895q0 -41 -43 -41q-16 0 -29 12l-813 815h-24l-814 -815q-12 -12 -28 -12q-18 0 -30.5 10t-12.5 31z" />
<glyph unicode="x" horiz-adv-x="1157" d="M78 924q0 18 12 30.5t31 12.5q16 0 29 -13l419 -422l422 422q12 12 29 13q16 0 29.5 -13.5t13.5 -31.5q0 -14 -12 -27l-422 -422l415 -414q12 -12 13 -28q0 -16 -13.5 -29.5t-31.5 -13.5q-14 0 -27 12l-416 414l-413 -414q-12 -12 -29 -12q-18 0 -30.5 12t-12.5 31 q0 16 12 28l416 414l-422 422q-12 12 -12 29z" />
<glyph unicode="y" horiz-adv-x="1400" d="M94 922q0 43 45 43q16 0 27 -11l534 -534h19l534 534q12 12 29 13q16 0 29.5 -13.5t13.5 -31.5q0 -14 -12 -27l-547 -547l-14 -8v-311q0 -23 -15.5 -31t-25.5 -8q-41 0 -41 39v311l-17 8l-547 547q-12 12 -12 27z" />
<glyph unicode="z" horiz-adv-x="1159" d="M90 31q0 16 12 28l826 824h-795q-25 0 -33 15t-8 26q0 41 41 41h895q41 0 41 -41q0 -16 -12 -29l-824 -825h795q23 0 31 -15.5t8 -25.5q0 -41 -39 -41h-895q-43 0 -43 43z" />
<glyph unicode="{" horiz-adv-x="528" d="M43 582q0 10 12 26l127 131v461q0 16 11 29l139 137q10 12 28 12h74q23 0 31 -15t8 -26q0 -41 -39 -41h-55l-115 -114v-459q0 -12 -12 -29l-109 -112l107 -105q14 -12 14 -31v-524l113 -117h57q23 0 31 -15t8 -26q0 -41 -39 -40h-74q-18 0 -28 12l-139 143q-10 12 -11 27 v524l-125 121q-14 14 -14 31z" />
<glyph unicode="|" horiz-adv-x="301" d="M117 -223v1560q0 23 15 31t26 8q41 0 41 -39v-1560q0 -23 -15.5 -31t-25.5 -8q-41 0 -41 39z" />
<glyph unicode="}" horiz-adv-x="528" d="M43 -236q0 41 39 41h57l113 117v524q0 18 14 31l107 105l-109 112q-12 16 -12 29v459l-115 114h-55q-23 0 -31 15.5t-8 25.5q0 41 39 41h74q18 0 28 -12l140 -137q10 -12 10 -29v-461l127 -131q12 -12 12 -30q0 -14 -14 -27l-125 -121v-524q0 -14 -10 -27l-140 -143 q-10 -12 -28 -12h-74q-23 0 -31 15t-8 25z" />
<glyph unicode="~" horiz-adv-x="540" d="M20 926q1 10 9 18l147 150q8 10 23 10q8 0 18 -10l131 -131l131 131q8 8 19 8q29 0 28 -31q0 -10 -6 -16l-153 -150q-8 -8 -21 -8q-10 0 -18 8l-131 131l-129 -131q-8 -8 -19 -8q-29 0 -29 29z" />
<glyph unicode="&#xa2;" horiz-adv-x="1415" d="M39 250v737q0 18 12 31l215 215q12 12 31 12h338v96q0 25 15.5 33t25.5 8q41 0 41 -41v-96h323q18 0 29 -12l133 -131q12 -12 12 -31v-84q0 -23 -15 -31t-25 -8q-41 0 -41 39v66l-111 110h-305v-1093h438l115 114v76q0 25 15 33t26 8q41 0 41 -41v-92q0 -18 -13 -31 l-137 -137q-12 -12 -28 -12h-457v-86q0 -23 -15.5 -31t-25.5 -8q-41 0 -41 39v86h-334q-16 0 -29 12l-221 221q-12 12 -12 29zM121 268l198 -198h316v1093h-320l-194 -192v-703z" />
<glyph unicode="&#xa8;" horiz-adv-x="479" d="M53 969v215q0 25 15.5 33t25.5 8q41 0 41 -41v-215q0 -25 -15.5 -33t-25.5 -8q-41 0 -41 41zM352 969v215q0 25 15.5 33t25.5 8q41 0 41 -41v-215q0 -25 -15.5 -33t-25.5 -8q-41 0 -41 41z" />
<glyph unicode="&#xa9;" horiz-adv-x="1599" d="M111 246v702q0 19 10 31l215 215q10 12 29 12h892q20 0 31 -12l215 -215q10 -12 10 -31v-702q0 -18 -10 -29l-219 -217q-16 -12 -29 -12h-890q-18 0 -29 12l-215 217q-10 10 -10 29zM193 264l190 -194h854l195 194v666l-191 194h-858l-190 -194v-666zM381 432v334 q0 23 10 31l170 166q12 12 29 12h381q10 0 26 -12l111 -107q12 -10 12 -29v-61q0 -23 -15 -31t-26 -8q-41 0 -41 39v45l-84 82h-346l-145 -143v-299l147 -148h394l147 148v47q0 25 15.5 33t25.5 8q41 0 41 -41v-66q0 -16 -12 -29l-170 -170q-12 -12 -31 -12h-428 q-18 0 -31 12l-170 170q-10 10 -10 29z" />
<glyph unicode="&#xaa;" horiz-adv-x="864" d="M-6 676q0 33 31 33h741q31 0 31 -33t-31 -33h-741q-31 0 -31 33zM-6 842q0 12 8 20l86 86h-8q-31 0 -31 33t31 33h72l206 207q2 0 9.5 5t13.5 5h29q10 0 15 -4t7 -6l359 -359q8 -8 8 -22q0 -33 -35 -33q-12 0 -21 8l-133 133h-432l-131 -133q-8 -8 -18 -8q-35 0 -35 35z M244 1014h301l-148 151z" />
<glyph unicode="&#xab;" horiz-adv-x="1216" d="M61 584v67q0 18 11 31l477 477q12 12 26 12q43 0 43 -45q0 -14 -10 -24l-465 -467v-33l533 -536q12 -12 12 -29q0 -16 -13 -29.5t-32 -13.5q-12 0 -25 12l-546 547q-10 12 -11 31zM401 584v67q0 14 13 31l475 477q12 12 29 12q18 0 30.5 -12t12.5 -31q-1 -14 -13 -26 l-465 -467v-33l535 -536q12 -12 12 -25q0 -18 -14.5 -32.5t-32.5 -14.5q-12 0 -25 12l-544 547q-12 16 -13 31z" />
<glyph unicode="&#xad;" horiz-adv-x="1095" d="M43 516q0 41 39 41h901q23 0 31 -15.5t8 -25.5q0 -41 -39 -41h-901q-23 0 -31 15.5t-8 25.5z" />
<glyph unicode="&#xae;" horiz-adv-x="1599" d="M123 246v702q0 13 12 29l211 215q12 14 29 14h899q18 0 31 -14l211 -215q12 -16 12 -29v-702q0 -16 -15 -29l-225 -217q-16 -12 -28 -12h-889q-18 0 -31 14l-205 215q-12 16 -12 29zM205 262l182 -192h856l203 192v670l-189 192h-866l-186 -190v-672zM324 514q0 41 41 41 h57v324q0 16 12 28l55 56q12 12 31 12h551q18 0 31 -12l106 -107q12 -12 13 -31v-198q0 -20 -13 -31l-112 -111q-16 -12 -29 -12h-14l157 -156q12 -12 13 -26q0 -43 -45 -43q-16 0 -27 10l-215 215h-432v-184q0 -25 -15.5 -33t-25.5 -8q-41 0 -41 41v184h-57q-25 0 -33 15.5 t-8 25.5zM504 555h545l90 88v164l-86 86h-516l-33 -33v-305z" />
<glyph unicode="&#xb0;" horiz-adv-x="536" d="M-4 1108q0 98 72.5 185t201.5 87q98 1 176 -65q45 -37 70 -93.5t25 -115.5q0 -100 -50.5 -160.5t-106.5 -85t-116 -24.5q-100 0 -186 71.5t-86 200.5zM78 1106q-1 -88 65 -143q53 -45 127 -45q88 0 138.5 58t50.5 132q0 90 -58.5 140t-132.5 50q-90 0 -140 -59t-50 -133z " />
<glyph unicode="&#xb1;" horiz-adv-x="1081" d="M94 150q0 41 41 40h826q23 0 30.5 -15t7.5 -25q1 -41 -38 -41h-826q-25 0 -33 15t-8 26zM94 805q0 41 41 41h377v366q0 23 15.5 31t25.5 8q41 0 41 -39v-366h367q23 0 30.5 -15.5t7.5 -25.5q0 -41 -38 -41h-367v-447q0 -23 -15.5 -30.5t-25.5 -7.5q-41 0 -41 38v447h-377 q-25 0 -33 15.5t-8 25.5z" />
<glyph unicode="&#xb4;" horiz-adv-x="303" d="M18 981q0 14 13 27l170 170q12 12 28 12q18 0 30.5 -12.5t12.5 -30.5q0 -17 -12 -29l-170 -170q-12 -12 -29 -12q-16 0 -29.5 13.5t-13.5 31.5z" />
<glyph unicode="&#xb5;" horiz-adv-x="2519" d="M104 29q1 16 15 30l893 895q12 10 30 11h52q20 0 30 -11l893 -895q12 -12 13 -26q0 -16 -14.5 -30.5t-30.5 -14.5q-14 0 -27 12l-881 883h-16l-885 -883q-12 -12 -29 -12q-14 0 -28.5 12t-14.5 29zM1450 924q0 16 13.5 29.5t31.5 13.5q13 -1 25 -13l893 -895 q12 -12 12 -28t-13.5 -29.5t-31.5 -13.5q-12 0 -25 12l-893 895q-12 12 -12 29z" />
<glyph unicode="&#xb6;" horiz-adv-x="1179" d="M4 659v328q0 20 12 31l213 211q16 12 29 12h543q18 0 30 -12l74 -74q10 -12 10 -29v-643h117q23 0 31 -15t8 -26q0 -41 -39 -41h-117v-372q0 -23 -15 -31t-26 -8q-41 0 -40 39v372h-115v-372q0 -23 -15.5 -31t-25.5 -8q-41 0 -41 39v372h-375q-18 0 -29 13l-217 215 q-12 12 -12 30zM86 676l195 -193h356v676h-361l-190 -188v-295zM719 483h115v625l-52 51h-63v-676z" />
<glyph unicode="&#xb8;" horiz-adv-x="292" d="M-47 -119q0 25 15.5 33t25.5 8q41 0 41 -41q0 -43 31.5 -74.5t74.5 -31.5q45 0 76 30.5t31 75.5t-31 76t-76 31q-25 0 -33 15t-8 26q0 41 41 41q80 0 134.5 -54.5t54.5 -134.5q0 -78 -55.5 -133t-133.5 -55t-133 55t-55 133z" />
<glyph unicode="&#xba;" horiz-adv-x="724" d="M-2 926v192q0 12 10 23l80 80q10 10 23 10h413q12 0 23 -10l86 -86q10 -10 10 -23v-184q0 -12 -10 -23l-88 -90q-10 -8 -25 -8h-401q-17 0 -25 8l-86 88q-10 10 -10 23zM0 676q0 33 31 33h579q31 0 31 -33t-31 -33h-579q-31 0 -31 33zM63 938l68 -66h377l70 68v160 l-66 65h-387l-62 -61v-166z" />
<glyph unicode="&#xbb;" horiz-adv-x="1075" d="M27 41q0 14 10 25l534 536v33l-465 467q-12 12 -12 28t13.5 30t29.5 14q17 -1 29 -15l477 -477q10 -12 10 -31v-67q0 -18 -10 -31l-547 -547q-12 -12 -26 -12q-12 0 -27.5 11t-15.5 36zM367 39q0 14 12 27l534 536v33l-467 467q-12 12 -12 24q0 16 14.5 30.5t30.5 14.5 q15 0 27 -12l477 -477q12 -16 12 -31v-67q0 -14 -12 -31l-545 -547q-12 -12 -28 -12t-29.5 13t-13.5 32z" />
<glyph unicode="&#xc0;" horiz-adv-x="2691" d="M104 29q0 16 15 30l346 347h-117q-25 0 -33 15t-8 25q0 41 41 41h199l745 746q12 12 31 12h70q18 0 28 -12l1176 -1174q12 -12 12 -28q0 -18 -12 -30.5t-31 -12.5q-16 0 -29 12l-405 406h-1548l-408 -406q-12 -12 -29 -12q-14 0 -28.5 12t-14.5 29zM666 487h1384 l-676 676h-35zM1224 1528q0 16 13.5 29.5t31.5 13.5q15 0 27 -12l170 -170q12 -12 12 -29q0 -18 -12 -30.5t-31 -12.5q-16 0 -28 12l-170 170q-12 12 -13 29z" />
<glyph unicode="&#xc1;" horiz-adv-x="2691" d="M104 29q0 16 15 30l346 347h-117q-25 0 -33 15t-8 25q0 41 41 41h199l745 746q12 12 31 12h70q18 0 28 -12l1176 -1174q12 -12 12 -28q0 -18 -12 -30.5t-31 -12.5q-16 0 -29 12l-405 406h-1548l-408 -406q-12 -12 -29 -12q-14 0 -28.5 12t-14.5 29zM666 487h1384 l-676 676h-35zM1210 1368q0 14 13 27l170 170q12 12 28 12q18 0 30.5 -12.5t12.5 -30.5q0 -17 -12 -29l-170 -170q-12 -12 -29 -12q-16 0 -29.5 13.5t-13.5 31.5z" />
<glyph unicode="&#xc2;" horiz-adv-x="2592" d="M70 31q0 16 12 28l348 347h-119q-23 0 -31 15t-8 25q0 41 39 41h201l745 746q10 12 29 12h70q18 0 30 -12l1174 -1174q12 -12 12 -28q0 -18 -12 -30.5t-31 -12.5q-14 0 -26 12l-408 406h-1548l-406 -406q-12 -12 -28 -12q-18 0 -30.5 12t-12.5 31zM629 487h1384l-674 676 h-34zM1128 1372q1 15 13 27l149 151q12 12 31 13q16 0 29 -13l151 -151q12 -12 12 -29q0 -16 -13 -29.5t-32 -13.5q-14 0 -26 12l-121 123l-121 -123q-12 -12 -29 -12q-16 0 -29.5 13.5t-13.5 31.5z" />
<glyph unicode="&#xc3;" horiz-adv-x="2592" d="M37 31q0 16 12 28l348 347h-118q-23 0 -31 15t-8 25q0 41 39 41h200l746 746q10 12 28 12h70q18 0 31 -12l1173 -1174q12 -12 13 -28q0 -18 -12.5 -30.5t-30.5 -12.5q-14 0 -27 12l-408 406h-1548l-405 -406q-12 -12 -29 -12q-18 0 -30.5 12t-12.5 31zM596 487h1384 l-673 676h-35zM1067 1360q0 10 6 16l150 152q8 8 20 8q10 0 19 -8l131 -131l133 131q10 6 18 6q29 0 29 -29q0 -10 -8 -18l-152 -150q-8 -8 -22 -8q-10 0 -19 8l-131 131l-129 -131q-8 -8 -18 -8q-27 0 -27 31z" />
<glyph unicode="&#xc4;" horiz-adv-x="2691" d="M104 29q0 16 15 30l346 347h-117q-25 0 -33 15t-8 25q0 41 41 41h199l745 746q12 12 31 12h70q18 0 28 -12l1176 -1174q12 -12 12 -28q0 -18 -12 -30.5t-31 -12.5q-16 0 -29 12l-405 406h-1548l-408 -406q-12 -12 -29 -12q-14 0 -28.5 12t-14.5 29zM666 487h1384 l-676 676h-35zM1167 1362v215q0 25 15.5 33t25.5 8q41 0 41 -41v-215q0 -25 -15.5 -33t-25.5 -8q-41 0 -41 41zM1466 1362v215q0 25 15.5 33t25.5 8q41 0 41 -41v-215q0 -25 -15.5 -33t-25.5 -8q-41 0 -41 41z" />
<glyph unicode="&#xc6;" horiz-adv-x="2811" d="M104 29q0 16 15 30l346 347h-180q-23 0 -31 15t-8 25q0 41 39 41h262l745 746q10 10 35 10l10 2h1356q25 0 33 -15.5t8 -25.5q0 -41 -41 -41h-1315v-676h1045q25 0 33 -15t8 -26q0 -41 -41 -40h-1045v-336h1301q23 0 31 -15.5t8 -25.5q0 -41 -39 -41h-1342q-41 0 -41 41 v377h-712l-408 -406q-12 -12 -29 -12q-14 0 -28.5 12t-14.5 29zM666 487h630v631z" />
<glyph unicode="&#xc7;" horiz-adv-x="1970" d="M96 250v739q0 20 13 31l215 213q16 12 30 12h1229q16 0 29 -12l133 -139q12 -12 12 -27v-80q0 -23 -15.5 -31t-25.5 -8q-41 0 -41 39v64l-108 112h-1194l-195 -192v-705l193 -196h1329l112 108v82q0 25 15.5 33t25.5 8q41 0 41 -41v-98q0 -16 -14 -29l-137 -133 q-16 -12 -27 -12h-618q33 -49 32 -107q0 -78 -55 -133t-133 -55t-133 55t-55 133q0 25 15 33t26 8q41 0 41 -41q0 -43 31.5 -74.5t74.5 -31.5q45 0 76 30.5t31 75.5t-31 76t-76 31h-10h-578q-18 0 -30 14l-215 221q-12 16 -13 27z" />
<glyph unicode="&#xc8;" horiz-adv-x="1789" d="M51 446q0 41 41 41h107v648q0 20 14 32l78 68q12 10 26 10h1358q23 0 31 -15.5t8 -25.5q0 -41 -39 -41h-1343l-51 -45v-631h1124q23 0 31 -15t8 -26q0 -41 -39 -40h-1124v-336h1378q25 0 33 -15.5t8 -25.5q0 -41 -41 -41h-1419q-41 0 -41 41v377h-107q-25 0 -33 15t-8 25 zM882 1528q0 16 13.5 29.5t31.5 13.5q15 0 27 -12l170 -170q12 -12 12 -29q0 -18 -12 -30.5t-31 -12.5q-16 0 -28 12l-170 170q-12 12 -13 29z" />
<glyph unicode="&#xc9;" horiz-adv-x="1789" d="M51 446q0 41 41 41h107v648q0 20 14 32l78 68q12 10 26 10h1358q23 0 31 -15.5t8 -25.5q0 -41 -39 -41h-1343l-51 -45v-631h1124q23 0 31 -15t8 -26q0 -41 -39 -40h-1124v-336h1378q25 0 33 -15.5t8 -25.5q0 -41 -41 -41h-1419q-41 0 -41 41v377h-107q-25 0 -33 15t-8 25 zM858 1368q0 14 13 27l170 170q12 12 28 12q18 0 30.5 -12.5t12.5 -30.5q0 -17 -12 -29l-170 -170q-12 -12 -29 -12q-16 0 -29.5 13.5t-13.5 31.5z" />
<glyph unicode="&#xca;" horiz-adv-x="1802" d="M29 446q0 41 41 41h106v648q0 20 14 32l78 68q12 10 27 10h1356q25 0 33 -15.5t8 -25.5q0 -41 -41 -41h-1342l-51 -45v-631h1122q25 0 33 -15t8 -26q0 -41 -41 -40h-1122v-336h1378q25 0 33 -15.5t8 -25.5q0 -41 -41 -41h-1419q-41 0 -41 41v377h-106q-25 0 -33 15t-8 25 zM760 1370q0 17 14 29l150 151q12 12 30 13q12 0 29 -13l152 -151q12 -12 12 -29q0 -16 -13.5 -29.5t-31.5 -13.5q-14 0 -27 12l-121 123l-123 -123q-12 -12 -28 -12t-29.5 13.5t-13.5 29.5z" />
<glyph unicode="&#xcb;" horiz-adv-x="1789" d="M51 446q0 41 41 41h107v648q0 20 14 32l78 68q12 10 26 10h1358q23 0 31 -15.5t8 -25.5q0 -41 -39 -41h-1343l-51 -45v-631h1124q23 0 31 -15t8 -26q0 -41 -39 -40h-1124v-336h1378q25 0 33 -15.5t8 -25.5q0 -41 -41 -41h-1419q-41 0 -41 41v377h-107q-25 0 -33 15t-8 25 zM860 1362v215q0 25 15.5 33t25.5 8q41 0 41 -41v-215q0 -25 -15.5 -33t-25.5 -8q-41 0 -41 41zM1159 1362v215q0 25 15.5 33t25.5 8q41 0 41 -41v-215q0 -25 -15.5 -33t-25.5 -8q-41 0 -41 41z" />
<glyph unicode="&#xcc;" horiz-adv-x="1634" d="M96 1204q0 41 39 41h1352q25 0 33 -15.5t8 -25.5q0 -41 -41 -41h-672v-1093h672q25 0 33 -15.5t8 -25.5q0 -41 -41 -41h-1335q-25 0 -33 15t-8 26q0 41 41 41h581v1093h-598q-23 0 -31 15.5t-8 25.5zM647 1530q0 16 13.5 29.5t31.5 13.5q15 0 27 -12l170 -170 q12 -12 12 -29q0 -18 -12 -30.5t-31 -12.5q-16 0 -28 12l-170 170q-12 12 -13 29z" />
<glyph unicode="&#xcd;" horiz-adv-x="1634" d="M96 1204q0 41 39 41h1352q25 0 33 -15.5t8 -25.5q0 -41 -41 -41h-672v-1093h672q25 0 33 -15.5t8 -25.5q0 -41 -41 -41h-1335q-25 0 -33 15t-8 26q0 41 41 41h581v1093h-598q-23 0 -31 15.5t-8 25.5zM647 1364q0 14 13 27l170 170q12 12 28 12q18 0 30.5 -12.5 t12.5 -30.5q0 -17 -12 -29l-170 -170q-12 -12 -29 -12q-16 0 -29.5 13.5t-13.5 31.5z" />
<glyph unicode="&#xce;" horiz-adv-x="1556" d="M74 1204q0 41 39 41h1351q25 0 33 -15.5t8 -25.5q0 -41 -41 -41h-671v-1093h671q25 0 33 -15.5t8 -25.5q0 -41 -41 -41h-1337q-23 0 -31 15t-8 26q0 41 39 41h584v1093h-598q-23 0 -31 15.5t-8 25.5zM563 1370q1 17 15 29l149 151q12 12 31 13q12 0 28 -13l152 -151 q12 -12 12 -29q0 -16 -13 -29.5t-32 -13.5q-14 0 -26 12l-121 123l-123 -123q-12 -12 -29 -12q-16 0 -29.5 13.5t-13.5 29.5z" />
<glyph unicode="&#xcf;" horiz-adv-x="1634" d="M96 1204q0 41 39 41h1352q25 0 33 -15.5t8 -25.5q0 -41 -41 -41h-672v-1093h672q25 0 33 -15.5t8 -25.5q0 -41 -41 -41h-1335q-25 0 -33 15t-8 26q0 41 41 41h581v1093h-598q-23 0 -31 15.5t-8 25.5zM588 1362v215q0 25 15.5 33t25.5 8q41 0 41 -41v-215q0 -25 -15.5 -33 t-25.5 -8q-41 0 -41 41zM887 1362v215q0 25 15.5 33t25.5 8q41 0 41 -41v-215q0 -25 -15.5 -33t-25.5 -8q-41 0 -41 41z" />
<glyph unicode="&#xd1;" horiz-adv-x="1460" d="M106 29v1175q0 41 41 41q16 0 29 -12l1147 -1145q12 -12 12 -29q0 -16 -13 -29.5t-32 -13.5q-14 0 -26 13l-1076 1075v-1075q0 -23 -15 -31t-26 -8q-41 0 -41 39zM471 1360q0 10 6 16l150 152q8 8 20 8q10 0 19 -8l131 -131l133 131q10 6 18 6q29 0 29 -29q0 -10 -8 -18 l-154 -150q-8 -8 -20 -8q-10 0 -19 8l-131 131l-129 -131q-8 -8 -18 -8q-27 0 -27 31zM1266 29v1175q0 23 15 31t26 8q41 0 41 -39v-1175q0 -23 -15.5 -31t-25.5 -8q-41 0 -41 39z" />
<glyph unicode="&#xd2;" horiz-adv-x="2029" d="M117 246v741q0 19 10 31l217 215q12 12 29 12h1288q18 0 31 -12l211 -217q10 -12 10 -29v-741q0 -18 -12 -29l-226 -217q-16 -12 -28 -12h-1274q-20 0 -31 12l-215 217q-10 10 -10 29zM199 264l190 -194h1241l201 192v709l-186 192h-1254l-192 -192v-707zM903 1534 q0 16 13.5 29.5t31.5 13.5q15 0 27 -12l170 -170q12 -12 12 -29q0 -18 -12 -30.5t-31 -12.5q-16 0 -28 12l-170 170q-12 12 -13 29z" />
<glyph unicode="&#xd3;" horiz-adv-x="2029" d="M117 246v741q0 19 10 31l217 215q12 12 29 12h1288q18 0 31 -12l211 -217q10 -12 10 -29v-741q0 -18 -12 -29l-226 -217q-16 -12 -28 -12h-1274q-20 0 -31 12l-215 217q-10 10 -10 29zM199 264l190 -194h1241l201 192v709l-186 192h-1254l-192 -192v-707zM888 1364 q0 14 13 27l170 170q12 12 28 12q18 0 30.5 -12.5t12.5 -30.5q0 -17 -12 -29l-170 -170q-12 -12 -29 -12q-16 0 -29.5 13.5t-13.5 31.5z" />
<glyph unicode="&#xd4;" horiz-adv-x="1900" d="M76 246v741q0 19 10 31l217 215q12 12 29 12h1288q18 0 31 -12l211 -217q10 -12 10 -29v-741q0 -18 -12 -29l-226 -217q-16 -12 -28 -12h-1274q-20 0 -31 12l-215 217q-10 10 -10 29zM158 264l190 -194h1241l201 192v709l-186 192h-1254l-192 -192v-707zM768 1370 q0 17 14 29l150 151q12 12 31 13q12 0 28 -13l152 -151q12 -12 12 -29q0 -16 -13.5 -29.5t-31.5 -13.5q-14 0 -27 12l-120 123l-123 -123q-12 -12 -29 -12q-16 0 -29.5 13.5t-13.5 29.5z" />
<glyph unicode="&#xd5;" horiz-adv-x="1955" d="M92 246v741q0 19 10 31l217 215q12 12 29 12h1288q18 0 31 -12l211 -217q10 -12 10 -29v-741q0 -18 -12 -29l-225 -217q-16 -12 -29 -12h-1274q-20 0 -31 12l-215 217q-10 10 -10 29zM174 264l191 -194h1241l200 192v709l-186 192h-1253l-193 -192v-707zM782 1358 q1 10 9 18l147 152q8 8 23 8q10 0 18 -8l131 -131l131 131q10 6 19 6q29 0 28 -31q0 -10 -6 -16l-154 -150q-8 -8 -20 -8q-10 0 -18 8l-132 131l-129 -131q-8 -8 -18 -8q-29 0 -29 29z" />
<glyph unicode="&#xd6;" horiz-adv-x="2029" d="M117 246v741q0 19 10 31l217 215q12 12 29 12h1288q18 0 31 -12l211 -217q10 -12 10 -29v-741q0 -18 -12 -29l-226 -217q-16 -12 -28 -12h-1274q-20 0 -31 12l-215 217q-10 10 -10 29zM199 264l190 -194h1241l201 192v709l-186 192h-1254l-192 -192v-707zM815 1362v215 q0 25 15.5 33t25.5 8q41 0 41 -41v-215q0 -25 -15.5 -33t-25.5 -8q-41 0 -41 41zM1114 1362v215q0 25 15.5 33t25.5 8q41 0 41 -41v-215q0 -25 -15.5 -33t-25.5 -8q-41 0 -41 41z" />
<glyph unicode="&#xd9;" horiz-adv-x="1601" d="M117 242v962q0 23 15 31t26 8q41 0 41 -39v-946l190 -188h836l188 188v946q0 23 15.5 31t25.5 8q41 0 41 -39v-962q0 -23 -10 -31l-213 -211q-16 -12 -31 -12h-870q-14 0 -31 12l-213 211q-10 10 -10 31zM634 1534q0 16 13.5 29.5t31.5 13.5q15 0 27 -12l170 -170 q12 -12 12 -29q0 -18 -12 -30.5t-31 -12.5q-16 0 -28 12l-170 170q-12 12 -13 29z" />
<glyph unicode="&#xda;" horiz-adv-x="1601" d="M117 242v962q0 23 15 31t26 8q41 0 41 -39v-946l190 -188h836l188 188v946q0 23 15.5 31t25.5 8q41 0 41 -39v-962q0 -23 -10 -31l-213 -211q-16 -12 -31 -12h-870q-14 0 -31 12l-213 211q-10 10 -10 31zM651 1364q0 14 13 27l170 170q12 12 28 12q18 0 30.5 -12.5 t12.5 -30.5q0 -17 -12 -29l-170 -170q-12 -12 -29 -12q-16 0 -29.5 13.5t-13.5 31.5z" />
<glyph unicode="&#xdb;" horiz-adv-x="1515" d="M66 242v962q0 23 15 31t25 8q41 0 41 -39v-946l191 -188h836l190 188v946q0 23 15.5 31t25.5 8q41 0 41 -39v-962q0 -20 -12 -31l-213 -211q-16 -12 -29 -12h-873q-16 0 -28 12l-213 211q-12 10 -12 31zM549 1372q0 15 12 27l152 151q12 12 30 13q12 0 29 -13l150 -151 q12 -12 12 -29q0 -18 -12.5 -30.5t-30.5 -12.5q-14 0 -27 12l-123 123l-120 -123q-12 -12 -29 -12q-16 0 -29.5 13.5t-13.5 31.5z" />
<glyph unicode="&#xdc;" horiz-adv-x="1523" d="M-4 242v962q0 23 15.5 31t25.5 8q41 0 41 -39v-946l188 -188h836l190 188v946q0 23 15.5 31t25.5 8q41 0 41 -39v-962q0 -20 -10 -31l-213 -211q-16 -12 -31 -12h-870q-14 0 -31 12l-213 211q-10 8 -10 31zM487 1323v215q0 25 15.5 33t25.5 8q41 0 41 -41v-215 q0 -25 -15 -33t-26 -8q-41 0 -41 41zM784 1323v215q0 25 15.5 33t25.5 8q41 0 41 -41v-215q0 -25 -15 -33t-26 -8q-41 0 -41 41z" />
<glyph unicode="&#xe0;" d="M63 31q0 16 13 28l282 283h-112q-23 0 -31 15.5t-8 25.5q0 41 39 41h194l529 530q10 10 28 11h70q18 0 29 -11l893 -895q12 -12 12 -28t-13.5 -29.5t-31.5 -13.5q-14 0 -27 12l-342 342h-1110l-342 -342q-12 -12 -29 -12q-18 0 -30.5 12t-12.5 31zM559 424h946l-456 459 h-33zM897 1284q0 16 13.5 29.5t31.5 13.5q15 0 27 -12l170 -170q12 -12 12 -29q0 -18 -12 -30.5t-31 -12.5q-16 0 -28 12l-170 170q-12 12 -13 29z" />
<glyph unicode="&#xe1;" d="M63 31q0 16 13 28l282 283h-112q-23 0 -31 15.5t-8 25.5q0 41 39 41h194l529 530q10 10 28 11h70q18 0 29 -11l893 -895q12 -12 12 -28t-13.5 -29.5t-31.5 -13.5q-14 0 -27 12l-342 342h-1110l-342 -342q-12 -12 -29 -12q-18 0 -30.5 12t-12.5 31zM559 424h946l-456 459 h-33zM882 1118q0 14 13 27l170 170q12 12 28 12q18 0 30.5 -12.5t12.5 -30.5q0 -17 -12 -29l-170 -170q-12 -12 -29 -12q-16 0 -29.5 13.5t-13.5 31.5z" />
<glyph unicode="&#xe2;" horiz-adv-x="2025" d="M53 33q0 16 10 26l285 283h-115q-23 0 -30.5 15.5t-7.5 25.5q0 41 38 41h197l526 530q10 10 31 11h68q20 0 30 -11l893 -895q12 -12 13 -26q0 -16 -14.5 -30.5t-30.5 -14.5q-14 0 -27 12l-342 342h-1112l-342 -342q-12 -12 -27 -12q-43 0 -43 45zM547 424h948l-459 459 h-32zM825 1122q1 17 13 29l149 149q14 14 31 15q16 0 29 -15l151 -149q12 -12 12 -29q0 -16 -13 -29.5t-32 -13.5q-14 0 -26 13l-121 120l-121 -120q-12 -12 -29 -13q-18 0 -30.5 12.5t-12.5 30.5z" />
<glyph unicode="&#xe3;" d="M63 31q0 16 13 28l282 283h-112q-23 0 -31 15.5t-8 25.5q0 41 39 41h194l529 530q10 10 28 11h70q18 0 29 -11l893 -895q12 -12 12 -28t-13.5 -29.5t-31.5 -13.5q-14 0 -27 12l-342 342h-1110l-342 -342q-12 -12 -29 -12q-18 0 -30.5 12t-12.5 31zM559 424h946l-456 459 h-33zM806 1110q1 10 9 18l147 150q8 10 23 10q8 0 18 -10l131 -131l131 131q8 8 19 8q29 0 28 -31q0 -10 -6 -16l-153 -150q-8 -8 -21 -8q-10 0 -18 8l-131 131l-129 -131q-8 -8 -19 -8q-29 0 -29 29z" />
<glyph unicode="&#xe4;" d="M63 31q0 16 13 28l282 283h-112q-23 0 -31 15.5t-8 25.5q0 41 39 41h194l529 530q10 10 28 11h70q18 0 29 -11l893 -895q12 -12 12 -28t-13.5 -29.5t-31.5 -13.5q-14 0 -27 12l-342 342h-1110l-342 -342q-12 -12 -29 -12q-18 0 -30.5 12t-12.5 31zM559 424h946l-456 459 h-33zM827 1100v215q0 25 15.5 33t25.5 8q41 0 41 -41v-215q0 -25 -15.5 -33t-25.5 -8q-41 0 -41 41zM1126 1100v215q0 25 15.5 33t25.5 8q41 0 41 -41v-215q0 -25 -15.5 -33t-25.5 -8q-41 0 -41 41z" />
<glyph unicode="&#xe6;" horiz-adv-x="2203" d="M76 31q0 16 12 28l248 248h-113q-25 0 -33 15.5t-8 25.5q0 41 41 41h195l565 565q12 11 37 11q35 -8 35 -43q0 -14 -13 -27l-59 -59v88q0 41 37 41h1036q23 0 31 -15.5t8 -25.5q0 -41 -39 -41h-991v-494h786q23 0 31 -15.5t8 -25.5q0 -41 -39 -41h-786v-237h979 q25 0 33 -15.5t8 -25.5q0 -41 -41 -41h-1020q-41 0 -41 41v278h-528l-308 -307q-12 -12 -28 -12q-18 0 -30.5 12t-12.5 31zM537 389h446v447z" />
<glyph unicode="&#xe7;" horiz-adv-x="1638" d="M72 242v475q0 18 12 31l207 206q10 10 28 11h957q18 0 31 -11l133 -133q12 -10 12 -30v-74q0 -23 -15.5 -31t-25.5 -8q-41 0 -41 39v57l-113 109h-919l-184 -183v-442l188 -188h979l186 188v61q0 23 15.5 31t25.5 8q41 0 41 -39v-77q0 -14 -12 -31l-209 -211 q-10 -12 -29 -12h-374q35 -45 34 -107q0 -78 -55 -133t-133 -55t-133 55t-55 133q0 25 15 33t26 8q41 0 41 -41q0 -43 31.5 -74.5t74.5 -31.5q45 0 76 30.5t31 75.5q0 82 -78 107h-99h-417q-16 0 -29 12l-211 211q-12 12 -12 31z" />
<glyph unicode="&#xe8;" horiz-adv-x="1484" d="M43 379q0 41 39 41h106v436q0 18 13 31l69 67q12 10 29 11h1096q23 0 31 -15.5t8 -25.5q0 -41 -39 -41h-1080l-45 -43v-420h844q23 0 31 -15.5t8 -25.5q0 -41 -39 -41h-844v-268h1114q23 0 31 -15.5t8 -25.5q0 -41 -39 -41h-1155q-41 0 -41 41v309h-106q-23 0 -31 15.5 t-8 25.5zM729 1284q0 16 13.5 29.5t31.5 13.5q15 0 27 -12l170 -170q12 -12 12 -29q0 -18 -12 -30.5t-31 -12.5q-16 0 -28 12l-170 170q-12 12 -13 29z" />
<glyph unicode="&#xe9;" horiz-adv-x="1568" d="M55 379q0 41 39 41h107v436q0 18 14 31l68 67q12 10 28 11h1096q25 0 33 -15.5t8 -25.5q0 -41 -41 -41h-1079l-45 -43v-420h843q25 0 33 -15.5t8 -25.5q0 -41 -41 -41h-843v-268h1114q25 0 33 -15.5t8 -25.5q0 -41 -41 -41h-1155q-41 0 -41 41v309h-107q-23 0 -31 15.5 t-8 25.5zM735 1116q0 16 15 29l170 170q12 12 28 12q18 0 30.5 -12t12.5 -31q0 -15 -12 -27l-172 -172q-12 -12 -29 -12q-16 0 -29.5 13.5t-13.5 29.5z" />
<glyph unicode="&#xea;" horiz-adv-x="1513" d="M18 379q0 41 39 41h107v436q0 18 12 31l70 67q12 10 28 11h1096q23 0 31 -15.5t8 -25.5q0 -41 -39 -41h-1079l-45 -43v-420h844q23 0 30.5 -15.5t7.5 -25.5q0 -41 -38 -41h-844v-268h1114q23 0 31 -15.5t8 -25.5q0 -41 -39 -41h-1155q-41 0 -41 41v309h-107 q-23 0 -31 15.5t-8 25.5zM641 1122q0 17 12 29l152 149q14 14 31 15q14 0 28 -15l150 -149q12 -12 12 -29q0 -18 -12.5 -30.5t-30.5 -12.5q-16 0 -29 13l-120 120l-121 -120q-12 -12 -29 -13q-18 0 -30.5 12.5t-12.5 30.5z" />
<glyph unicode="&#xeb;" horiz-adv-x="1484" d="M43 379q0 41 39 41h106v436q0 18 13 31l69 67q12 10 29 11h1096q23 0 31 -15.5t8 -25.5q0 -41 -39 -41h-1080l-45 -43v-420h844q23 0 31 -15.5t8 -25.5q0 -41 -39 -41h-844v-268h1114q23 0 31 -15.5t8 -25.5q0 -41 -39 -41h-1155q-41 0 -41 41v309h-106q-23 0 -31 15.5 t-8 25.5zM577 1088v215q0 25 15.5 33t25.5 8q41 0 41 -41v-215q0 -25 -15.5 -33t-25.5 -8q-41 0 -41 41zM876 1088v215q0 25 15.5 33t25.5 8q41 0 41 -41v-215q0 -25 -15.5 -33t-25.5 -8q-41 0 -41 41z" />
<glyph unicode="&#xec;" horiz-adv-x="1157" d="M131 924q0 41 39 41h831q23 0 31 -15.5t8 -25.5q0 -41 -39 -41h-372v-813h362q23 0 31 -15.5t8 -25.5q0 -41 -39 -41h-815q-25 0 -33 15t-8 26q0 41 41 41h371v813h-377q-23 0 -31 15t-8 26zM464 1284q0 16 13.5 29.5t31.5 13.5q15 0 27 -12l170 -170q12 -12 12 -29 q0 -18 -12 -30.5t-31 -12.5q-16 0 -28 12l-170 170q-12 12 -13 29z" />
<glyph unicode="&#xed;" horiz-adv-x="1157" d="M131 924q0 41 39 41h831q23 0 31 -15.5t8 -25.5q0 -41 -39 -41h-372v-813h362q23 0 31 -15.5t8 -25.5q0 -41 -39 -41h-815q-25 0 -33 15t-8 26q0 41 41 41h371v813h-377q-23 0 -31 15t-8 26zM450 1118q0 14 13 27l170 170q12 12 28 12q18 0 30.5 -12.5t12.5 -30.5 q0 -17 -12 -29l-170 -170q-12 -12 -29 -12q-16 0 -29.5 13.5t-13.5 31.5z" />
<glyph unicode="&#xee;" horiz-adv-x="1030" d="M68 924q0 41 38 41h832q23 0 31 -15.5t8 -25.5q0 -41 -39 -41h-373v-813h363q23 0 31 -15.5t8 -25.5q0 -41 -39 -41h-817q-23 0 -31 15t-8 26q0 41 39 41h372v813h-377q-23 0 -30.5 15t-7.5 26zM326 1120q0 17 14 31l149 149q14 14 31 15q14 0 29 -15l151 -149 q12 -12 13 -29q0 -16 -13.5 -29.5t-31.5 -13.5q-14 0 -27 13l-121 120l-123 -120q-12 -12 -28 -13q-14 0 -28.5 12.5t-14.5 28.5z" />
<glyph unicode="&#xf1;" horiz-adv-x="1144" d="M106 29v895q0 43 41 43q16 0 29 -13l823 -825v795q0 25 15.5 33t25.5 8q41 0 41 -41v-895q0 -41 -41 -41q-16 0 -28 12l-824 823v-794q0 -23 -15 -31t-26 -8q-41 0 -41 39zM367 1110q0 10 6 16l149 152q8 8 21 8q10 0 18 -8l131 -131l133 131q10 6 19 6q29 0 28 -27 q0 -10 -8 -18l-151 -152q-6 -6 -23 -6q-10 0 -16 6l-131 132l-129 -132q-8 -8 -19 -8q-29 0 -28 31z" />
<glyph unicode="&#xf2;" horiz-adv-x="1716" d="M106 246v479q0 16 13 29l198 200q12 10 31 11h1032q16 0 29 -11l213 -213q12 -12 12 -30v-461q0 -16 -12 -29l-221 -221q-12 -12 -29 -12h-1007q-19 0 -31 12l-215 217q-12 10 -13 29zM188 264l193 -194h973l198 198v424l-190 191h-997l-177 -176v-443zM712 1284 q0 16 13.5 29.5t31.5 13.5q15 0 27 -12l170 -170q12 -12 12 -29q0 -18 -12 -30.5t-31 -12.5q-16 0 -28 12l-170 170q-12 12 -13 29z" />
<glyph unicode="&#xf3;" horiz-adv-x="1716" d="M106 246v479q0 16 13 29l198 200q12 10 31 11h1032q16 0 29 -11l213 -213q12 -12 12 -30v-461q0 -16 -12 -29l-221 -221q-12 -12 -29 -12h-1007q-19 0 -31 12l-215 217q-12 10 -13 29zM188 264l193 -194h973l198 198v424l-190 191h-997l-177 -176v-443zM712 1118 q0 14 13 27l170 170q12 12 28 12q18 0 30.5 -12.5t12.5 -30.5q0 -17 -12 -29l-170 -170q-12 -12 -29 -12q-16 0 -29.5 13.5t-13.5 31.5z" />
<glyph unicode="&#xf4;" horiz-adv-x="1638" d="M70 246v479q0 18 10 29l201 200q12 10 28 11h1032q18 0 31 -11l213 -213q10 -12 10 -30v-461q0 -16 -10 -29l-221 -221q-12 -12 -31 -12h-1007q-17 0 -29 12l-217 217q-10 8 -10 29zM152 264l192 -194h971l198 198v424l-190 191h-995l-176 -176v-443zM629 1122 q0 17 12 29l150 149q14 14 30 15q16 0 29 -15l151 -149q12 -12 13 -29q0 -16 -13.5 -29.5t-31.5 -13.5q-14 0 -27 13l-121 120l-121 -120q-12 -12 -28 -13q-18 0 -30.5 12.5t-12.5 30.5z" />
<glyph unicode="&#xf5;" horiz-adv-x="1665" d="M82 246v479q0 16 12 29l199 200q12 10 31 11h1032q16 0 28 -11l213 -213q12 -12 13 -30v-461q0 -16 -13 -29l-221 -221q-12 -12 -28 -12h-1008q-19 0 -31 12l-215 217q-12 10 -12 29zM164 264l192 -194h973l199 198v424l-191 191h-997l-176 -176v-443zM627 1110 q0 10 6 16l149 152q8 8 21 8q10 0 18 -8l131 -131l133 131q10 6 19 6q29 0 29 -27q0 -10 -9 -18l-153 -152q-6 -6 -21 -6q-8 0 -18 6l-131 132l-129 -132q-8 -8 -19 -8q-27 0 -26 31z" />
<glyph unicode="&#xf6;" horiz-adv-x="1716" d="M106 246v479q0 16 13 29l198 200q12 10 31 11h1032q16 0 29 -11l213 -213q12 -12 12 -30v-461q0 -16 -12 -29l-221 -221q-12 -12 -29 -12h-1007q-19 0 -31 12l-215 217q-12 10 -13 29zM188 264l193 -194h973l198 198v424l-190 191h-997l-177 -176v-443zM682 1100v215 q0 25 15.5 33t25.5 8q41 0 41 -41v-215q0 -25 -15.5 -33t-25.5 -8q-41 0 -41 41zM981 1100v215q0 25 15.5 33t25.5 8q41 0 41 -41v-215q0 -25 -15.5 -33t-25.5 -8q-41 0 -41 41z" />
<glyph unicode="&#xf7;" horiz-adv-x="1273" d="M68 516q0 41 41 41h1032q23 0 31 -15.5t8 -25.5q0 -41 -39 -41h-1032q-25 0 -33 15.5t-8 25.5zM584 119v123q0 23 15 31t26 8q41 0 41 -39v-123q0 -25 -15.5 -33t-25.5 -8q-41 0 -41 41zM584 735v123q0 25 15 33t26 8q41 0 41 -41v-123q0 -23 -15.5 -31t-25.5 -8 q-41 0 -41 39z" />
<glyph unicode="&#xf8;" horiz-adv-x="536" d="M-4 1108q0 98 72.5 185t201.5 87q98 1 176 -65q45 -37 70 -93.5t25 -115.5q0 -100 -50.5 -160.5t-106.5 -85t-116 -24.5q-100 0 -186 71.5t-86 200.5zM78 1106q-1 -88 65 -143q53 -45 127 -45q88 0 138.5 58t50.5 132q0 90 -58.5 140t-132.5 50q-90 0 -140 -59t-50 -133z " />
<glyph unicode="&#xf9;" horiz-adv-x="1308" d="M111 242v682q0 25 15 33t26 8q41 0 41 -41v-666l188 -188h557l201 198v656q0 25 15 33t26 8q41 0 41 -41v-674q0 -18 -13 -29l-221 -221q-16 -12 -31 -12h-591q-18 0 -31 12l-211 211q-12 12 -12 31zM530 1284q0 16 13.5 29.5t31.5 13.5q15 0 27 -12l170 -170 q12 -12 12 -29q0 -18 -12 -30.5t-31 -12.5q-16 0 -28 12l-170 170q-12 12 -13 29z" />
<glyph unicode="&#xfa;" horiz-adv-x="1308" d="M111 242v682q0 25 15 33t26 8q41 0 41 -41v-666l188 -188h557l201 198v656q0 25 15 33t26 8q41 0 41 -41v-674q0 -18 -13 -29l-221 -221q-16 -12 -31 -12h-591q-18 0 -31 12l-211 211q-12 12 -12 31zM542 1118q0 14 13 27l170 170q12 12 28 12q18 0 30.5 -12.5 t12.5 -30.5q0 -17 -12 -29l-170 -170q-12 -12 -29 -12q-16 0 -29.5 13.5t-13.5 31.5z" />
<glyph unicode="&#xfb;" horiz-adv-x="1210" d="M43 242v682q0 25 15.5 33t25.5 8q41 0 41 -41v-666l188 -188h557l199 198v656q0 25 15.5 33t25.5 8q41 0 41 -41v-674q0 -20 -10 -29l-223 -221q-16 -12 -29 -12h-594q-18 0 -29 12l-213 211q-10 12 -10 31zM399 1120q1 17 15 31l149 149q14 14 31 15q14 0 29 -15 l151 -149q12 -12 12 -29q0 -16 -13 -29.5t-32 -13.5q-14 0 -26 13l-121 120l-123 -120q-12 -12 -29 -13q-14 0 -28.5 12.5t-14.5 28.5z" />
<glyph unicode="&#xfc;" horiz-adv-x="1210" d="M72 242v682q0 25 15 33t26 8q41 0 41 -41v-666l188 -188h557l201 198v656q0 25 15 33t26 8q41 0 41 -41v-674q0 -18 -13 -29l-223 -221q-12 -12 -28 -12h-594q-16 0 -29 12l-211 211q-12 12 -12 31zM428 1090v217q0 23 15.5 31t25.5 8q41 0 41 -39v-217q0 -23 -15.5 -31 t-25.5 -8q-41 0 -41 39zM725 1090v217q0 23 15.5 31t25.5 8q41 0 41 -39v-217q0 -23 -15.5 -31t-25.5 -8q-41 0 -41 39z" />
<glyph unicode="&#x152;" horiz-adv-x="3176" d="M152 246v741q0 20 10 31l217 215q12 12 29 12h1169h1436q25 0 33 -15.5t8 -25.5q0 -41 -41 -41h-1395v-676h1124q25 0 33 -15t8 -26q0 -41 -41 -40h-1124v-336h1380q23 0 31 -15.5t8 -25.5q0 -41 -39 -41h-1435h-1157q-20 0 -29 12l-215 217q-10 10 -10 29zM233 264 l191 -194h1112v1093h-1110l-193 -192v-707z" />
<glyph unicode="&#x153;" horiz-adv-x="2459" d="M100 195v565q0 20 11 31l165 163q12 10 31 11h910h923v-82h-887v-477h660v-82h-660v-254h1035v-82h-1076h-907q-18 0 -31 12l-163 166q-10 12 -11 29zM182 213l142 -143h847v813h-847l-142 -142v-528z" />
<glyph unicode="&#x2000;" horiz-adv-x="809" />
<glyph unicode="&#x2001;" horiz-adv-x="1618" />
<glyph unicode="&#x2002;" horiz-adv-x="809" />
<glyph unicode="&#x2003;" horiz-adv-x="1618" />
<glyph unicode="&#x2004;" horiz-adv-x="539" />
<glyph unicode="&#x2005;" horiz-adv-x="404" />
<glyph unicode="&#x2006;" horiz-adv-x="269" />
<glyph unicode="&#x2007;" horiz-adv-x="269" />
<glyph unicode="&#x2008;" horiz-adv-x="202" />
<glyph unicode="&#x2009;" horiz-adv-x="323" />
<glyph unicode="&#x200a;" horiz-adv-x="89" />
<glyph unicode="&#x2010;" horiz-adv-x="1095" d="M43 516q0 41 39 41h901q23 0 31 -15.5t8 -25.5q0 -41 -39 -41h-901q-23 0 -31 15.5t-8 25.5z" />
<glyph unicode="&#x2011;" horiz-adv-x="1095" d="M43 516q0 41 39 41h901q23 0 31 -15.5t8 -25.5q0 -41 -39 -41h-901q-23 0 -31 15.5t-8 25.5z" />
<glyph unicode="&#x2012;" horiz-adv-x="1095" d="M43 516q0 41 39 41h901q23 0 31 -15.5t8 -25.5q0 -41 -39 -41h-901q-23 0 -31 15.5t-8 25.5z" />
<glyph unicode="&#x2013;" horiz-adv-x="1677" d="M68 516q0 41 41 41h1490q23 0 31 -15.5t8 -25.5q0 -41 -39 -41h-1490q-25 0 -33 15.5t-8 25.5z" />
<glyph unicode="&#x2014;" horiz-adv-x="2043" d="M68 516q0 41 41 41h1845q23 0 31 -15.5t8 -25.5q0 -41 -39 -41h-1845q-25 0 -33 15.5t-8 25.5z" />
<glyph unicode="&#x2018;" horiz-adv-x="405" d="M35 1350q0 25 15.5 34t29.5 9q21 -1 33 -21l245 -424q6 -10 7 -18q0 -16 -14.5 -30.5t-31.5 -14.5q-20 0 -32 20l-246 426q-6 10 -6 19z" />
<glyph unicode="&#x2019;" horiz-adv-x="405" d="M35 930q0 8 6 18l246 424q12 20 32 21q45 0 46 -43q-1 -9 -7 -19l-245 -426q-12 -20 -33 -20q-45 0 -45 45z" />
<glyph unicode="&#x201c;" horiz-adv-x="665" d="M25 1350q0 18 14 30.5t31 12.5q20 -1 32 -21l246 -424q6 -10 6 -18q0 -16 -14 -30.5t-31 -14.5q-20 0 -33 20l-245 426q-6 10 -6 19zM309 1350q0 18 14.5 30.5t32.5 12.5q21 -1 33 -21l246 -424q6 -10 6 -18q0 -18 -15.5 -31.5t-31.5 -13.5q-20 0 -33 20l-246 426 q-6 10 -6 19z" />
<glyph unicode="&#x201d;" horiz-adv-x="589" d="M6 930q0 8 6 18l246 424q12 20 33 21q18 0 32.5 -12.5t14.5 -30.5q0 -9 -6 -19l-246 -426q-12 -20 -33 -20q-18 0 -32.5 12t-14.5 33zM293 930q0 8 6 18l246 424q12 20 33 21q45 0 45 -43q-1 -9 -7 -19l-245 -426q-12 -20 -33 -20q-45 0 -45 45z" />
<glyph unicode="&#x201e;" horiz-adv-x="3158" d="M41 1204q0 16 13.5 29.5t29.5 13.5q17 0 29 -14l1163 -1163h33l1161 1163q12 12 29 12q18 0 30.5 -12t12.5 -31q0 -14 -13 -26l-1173 -1176q-10 -12 -29 -12h-70q-16 0 -28 12l-1176 1176q-12 12 -12 28zM1718 31q1 16 13 28l1173 1174q12 12 27 12q18 0 30.5 -12 t12.5 -31q0 -14 -13 -26l-1171 -1176q-12 -12 -29 -12q-18 0 -30.5 12t-12.5 31z" />
<glyph unicode="&#x2022;" horiz-adv-x="374" d="M39 684q0 61 43 104t104 43t104.5 -43t43.5 -104t-43 -104t-105 -43q-61 0 -104 43t-43 104z" />
<glyph unicode="&#x2026;" horiz-adv-x="1265" d="M12 29v151q0 23 15.5 31t25.5 8q41 0 41 -39v-151q0 -23 -15.5 -31t-25.5 -8q-41 0 -41 39zM512 29v151q0 23 15.5 31t25.5 8q41 0 41 -39v-151q0 -23 -15.5 -31t-25.5 -8q-41 0 -41 39zM1010 29v151q0 23 15 31t26 8q41 0 41 -39v-151q0 -23 -15.5 -31t-25.5 -8 q-41 0 -41 39z" />
<glyph unicode="&#x202f;" horiz-adv-x="323" />
<glyph unicode="&#x205f;" horiz-adv-x="404" />
<glyph unicode="&#x2122;" horiz-adv-x="2215" d="M92 1325q0 41 41 41h764q23 0 31 -15.5t8 -25.5q0 -41 -39 -41h-338v-584q0 -25 -15.5 -33t-25.5 -8q-41 0 -41 41v584h-344q-25 0 -33 15.5t-8 25.5zM1026 700v625q0 43 41 43q16 0 29 -12l467 -467h10l469 467q12 12 29 12q41 0 40 -43v-625q0 -25 -15 -33t-25 -8 q-41 0 -41 41v525l-410 -408q-12 -10 -29 -10h-47q-18 0 -28 10l-408 408v-525q0 -25 -15.5 -33t-25.5 -8q-41 0 -41 41z" />
<glyph unicode="&#x25fc;" horiz-adv-x="962" d="M0 0v963h963v-963h-963z" />
</font>
</defs>
</svg>
